
<svg xmlns="http://www.w3.org/2000/svg" viewBox="0 0 64 64"><g><path fill="#ff5e5b" d="M32 2c16.568 0 30 13.432 30 30S48.568 62 32 62 2 48.568 2 32 15.432 2 32 2zm0 4C17.664 6 6 17.664 6 32s11.664 26 26 26 26-11.664 26-26S46.336 6 32 6zm0 8a6 6 0 110 12 6 6 0 010-12zm0 4a2 2 0 100 4 2 2 0 000-4zm0 8c7.732 0 14 6.268 14 14 0 2.21-.896 4.21-2.344 5.656C41.21 47.104 39.21 48 37 48c-2.21 0-4.21-.896-5.656-2.344C29.896 43.21 29 41.21 29 39c0-7.732 6.268-14 14-14zm0 4c-5.522 0-10 4.478-10 10 0 1.657.672 3.157 1.758 4.242C23.843 36.328 25.343 37 27 37c1.657 0 3.157-.672 4.242-1.758C32.328 38.157 33 39.657 33 41c0 5.522-4.478 10-10 10-1.657 0-3.157-.672-4.242-1.758C14.672 44.157 14 42.657 14 41c0-5.522 4.478-10 10-10z"/></g></svg>
